{"title":"The.Accidental.Witness.2006.DVDRip.AC3.X264-BARC0DE","uid":5700572,"size":1160468825,"categoryP":"video","categoryS":"movies","magnet":"?xt=urn:btih:208c4cf2ae91e42eb9ab84145f1324566fff0506&amp;dn=The.Accidental.Witness.2006.DVDRip.AC3.X264-BARC0DE&amp;tr=udp%3A%2F%2Ftracker.openbittorrent.com%3A80&amp;tr=udp%3A%2F%2Fopen.demonii.com%3A1337&amp;tr=udp%3A%2F%2Ftracker.coppersurfer.tk%3A6969&amp;tr=udp%3A%2F%2Fexodus.desync.com%3A6969","seeders":0,"leechers":1,"uploader":"TvTeam","files":4,"time":1279490564,"description":". \n  &lt;a href=&quot;\nhttp://www.torrentday.com/&quot; rel=&quot;nofollow&quot; target=&quot;_NEW&quot;&gt;\nhttp://www.torrentday.com/&lt;/a&gt;        :     The Hottest Private Tracker On The Net!!!\n\n\n               www . TorrentDay . Com \n(((((((((((((= Enjoy No RAR releases =))))))))))))))))))))\n\n\n...................................NFO:....................................\n\n.*******************************************************************************\n               The.Accidental.Witness.2006.DVDRip.AC3.X264-BARC0DE\n*******************************************************************************\n\n-------------------------------------------------------------------------------\n                              General Information\n-------------------------------------------------------------------------------\nType.................: Movie\nName.................: The Accidental Witness\nMovie Information....: http://www.imdb.com/title/tt0494243/\nGenre................: Thriller\n-------------------------------------------------------------------------------\n                                    PLOT\n-------------------------------------------------------------------------------\nWagner stars as Christine, a paralegal with aspirations of becoming a lawyer. \nGraham stars as Victor, a shady partner in an investment firm. When their paths \ncross, their lives change dramatically and in an ugly way. Aaron Pearl is adorable \nin the role of Christine's fianc, and handsome Richard Courtney also appears as \nher assistant.\n\n-------------------------------------------------------------------------------\n                                    CAST\n-------------------------------------------------------------------------------\nNatasha Gregson Wagner\t... \tChristine Sternwald\nCurrie Graham\t... \tVictor Sandeman\nAaron Pearl\t... \tJeff Monroe\nScott Hylands\t... \tDetective Bill Malone\nDavid Lewis\t... \tDavid Brunel\nEnid-Raye Adams\t... \tMaggie Wexler\nSarah-Jane Redmond\t... \tMary Lane Ferris\nDon MacKay\t... \tRaymond Brunel\nPeter Benson\t... \tJoseph Brockway\nTy Olsson\t... \tDetective Ed Reigert\nLinda Darlow\t... \tDetective Eleanor Douglas\nBrenda Crichlow\t... \tDorothy Adler (as Brenda M. Crichlow)\nLinda Ko\t... \tDr. Jetwan\nKrista Morin\t... \tErika\nLouise Grant\t... \tDog lady\n\n-------------------------------------------------------------------------------\n                                    MEDiA iNFO\n-------------------------------------------------------------------------------\n\nGeneral\nComplete name                    : The.Accidental.Witness.2006.DVDRip.AC3.X264-BARC0DE.mkv\nFormat                           : Matroska\nFile size                        : 1.08 GiB\nDuration                         : 1h 29mn\nOverall bit rate                 : 1 720 Kbps\n\nVideo\nID                               : 1\nFormat                           : AVC\nFormat/Info                      : Advanced Video Codec\nFormat profile                   : &lt;a class=&quot;__cf_email__&quot; href=&quot;/cdn-cgi/l/email-protection&quot; data-cfemail=&quot;521a3b353a121e617c62&quot;&gt;[email&amp;#160;protected]&lt;/a&gt;&lt;script cf-hash='f9e31' type=&quot;text/javascript&quot;&gt;\n/* &lt;![CDATA[ */!function(){try{var t=&quot;currentScript&quot;in document?document.currentScript:function(){for(var t=document.getElementsByTagName(&quot;script&quot;),e=t.length;e--;)if(t[e].getAttribute(&quot;cf-hash&quot;))return t[e]}();if(t&amp;&amp;t.previousSibling){var e,r,n,i,c=t.previousSibling,a=c.getAttribute(&quot;data-cfemail&quot;);if(a){for(e=&quot;&quot;,r=parseInt(a.substr(0,2),16),n=2;a.length-n;n+=2)i=parseInt(a.substr(n,2),16)^r,e+=String.fromCharCode(i);e=document.createTextNode(e),c.parentNode.replaceChild(e,c)}}}catch(u){}}();/* ]]&gt; */&lt;/script&gt;\nFormat settings, CABAC           : Yes\nFormat settings, ReFrames        : 3 frames\nMuxing mode                      : Container profile=&lt;a class=&quot;__cf_email__&quot; href=&quot;/cdn-cgi/l/email-protection&quot; data-cfemail=&quot;b0e5dedbdedfc7def0839e80&quot;&gt;[email&amp;#160;protected]&lt;/a&gt;&lt;script cf-hash='f9e31' type=&quot;text/javascript&quot;&gt;\n/* &lt;![CDATA[ */!function(){try{var t=&quot;currentScript&quot;in document?document.currentScript:function(){for(var t=document.getElementsByTagName(&quot;script&quot;),e=t.length;e--;)if(t[e].getAttribute(&quot;cf-hash&quot;))return t[e]}();if(t&amp;&amp;t.previousSibling){var e,r,n,i,c=t.previousSibling,a=c.getAttribute(&quot;data-cfemail&quot;);if(a){for(e=&quot;&quot;,r=parseInt(a.substr(0,2),16),n=2;a.length-n;n+=2)i=parseInt(a.substr(n,2),16)^r,e+=String.fromCharCode(i);e=document.createTextNode(e),c.parentNode.replaceChild(e,c)}}}catch(u){}}();/* ]]&gt; */&lt;/script&gt;\nCodec ID                         : V_MPEG4/ISO/AVC\nDuration                         : 1h 29mn\nBit rate                         : 1 289 Kbps\nWidth                            : 720 pixels\nHeight                           : 400 pixels\nDisplay aspect ratio             : 16:9\nFrame rate                       : 25.000 fps\nColor space                      : YUV\nChroma subsampling               : 4:2:0\nBit depth                        : 8 bits\nScan type                        : Progressive\nBits/(Pixel*Frame)               : 0.179\nStream size                      : 796 MiB (72%)\nWriting library                  : x264 core 79\n\nAudio\nID                               : 2\nFormat                           : AC-3\nFormat/Info                      : Audio Coding 3\nMode extension                   : CM (complete main)\nCodec ID                         : A_AC3\nDuration                         : 1h 29mn\nBit rate mode                    : Constant\nBit rate                         : 448 Kbps\nChannel(s)                       : 6 channels\nChannel positions                : Front: L C R, Side: L R, LFE\nSampling rate                    : 48.0 KHz\nStream size                      : 288 MiB (26%)\nLanguage                         : English","torrent":{"xt":"urn:btih:208c4cf2ae91e42eb9ab84145f1324566fff0506","amp;dn":"The.Accidental.Witness.2006.DVDRip.AC3.X264-BARC0DE","amp;tr":["udp%3A%2F%2Ftracker.openbittorrent.com%3A80","udp%3A%2F%2Fopen.demonii.com%3A1337","udp%3A%2F%2Ftracker.coppersurfer.tk%3A6969","udp%3A%2F%2Fexodus.desync.com%3A6969"],"infoHash":"208c4cf2ae91e42eb9ab84145f1324566fff0506","infoHashBuffer":{"type":"Buffer","data":[32,140,76,242,174,145,228,46,185,171,132,20,95,19,36,86,111,255,5,6]},"announce":[],"urlList":[]}}